<?xml version="1.0" encoding="utf-8"?>
<!-- Svg Vector Icons : http://www.onlinewebfonts.com/icon -->
<!DOCTYPE svg PUBLIC "-//W3C//DTD SVG 1.1//EN" "http://www.w3.org/Graphics/SVG/1.1/DTD/svg11.dtd">
<svg version="1.1" xmlns="http://www.w3.org/2000/svg" xmlns:xlink="http://www.w3.org/1999/xlink" x="0px" y="0px" viewBox="0 0 1000 1000" enable-background="new 0 0 1000 1000" xml:space="preserve">
<metadata> Svg Vector Icons : http://www.onlinewebfonts.com/icon </metadata>
<g><g transform="translate(0.000000,511.000000) scale(0.100000,-0.100000)"><path d="M352.9,2689.8c-84.3-24.9-206.9-151.4-231.8-241.4C107.7,2398.6,100,1638,100,84.1v-2291.5l44.1-84.3c24.9-46,82.4-109.2,126.5-141.8l82.4-57.5h4648h4650l72.8,46c40.2,24.9,95.8,80.4,124.5,122.6l51.7,78.6V107.1V2458l-57.5,82.4c-30.6,44.1-95.8,101.5-141.8,126.5l-84.3,44.1l-4600.2-1.9C2178.8,2709,391.2,2701.3,352.9,2689.8z M9643.3,2525c118.8-70.9,113,65.2,113-2419.8c0-2509.9,7.7-2360.4-124.5-2421.8c-57.5-26.8-511.6-30.6-4627-30.6c-5014,0-4646.1-9.6-4718.9,113c-30.7,51.7-32.6,220.3-32.6,2339.4c0,2509.9-7.7,2345.1,113,2419.8c46,28.7,429.2,30.7,4634.6,32.6C9290.7,2557.6,9591.5,2555.7,9643.3,2525z"/><path d="M889.4,1691.6c-32.6-32.6-32.6-457.9,0-490.5c32.6-32.6,534.5-32.6,567.1,0c32.6,32.6,32.6,457.9,0,490.5C1423.9,1724.2,921.9,1724.2,889.4,1691.6z M1326.2,1446.4v-115h-153.3h-153.3v115v115h153.3h153.3V1446.4z"/><path d="M1655.7,1691.6c-32.6-32.6-32.6-457.9,0-490.5c32.6-32.6,534.5-32.6,567.1,0c32.6,32.6,32.6,457.9,0,490.5C2190.3,1724.2,1688.3,1724.2,1655.7,1691.6z M2092.6,1446.4v-115h-153.3H1786v115v115h153.3h153.3V1446.4z"/><path d="M2422.1,1691.6c-32.6-32.6-32.6-457.9,0-490.5c32.6-32.6,534.5-32.6,567.1,0c32.6,32.6,32.6,457.9,0,490.5C2956.7,1724.2,2454.7,1724.2,2422.1,1691.6z M2858.9,1446.4v-115h-153.3h-153.3v115v115h153.3h153.3V1446.4z"/><path d="M3188.5,1691.6c-15.3-15.3-23-97.7-23-245.2c0-147.5,7.7-229.9,23-245.2c32.6-32.6,534.5-32.6,567.1,0c32.6,32.6,32.6,457.9,0,490.5C3723,1724.2,3221.1,1724.2,3188.5,1691.6z M3625.3,1446.4v-115H3472h-153.3v115v115H3472h153.3V1446.4z"/><path d="M3954.9,1691.6c-15.3-15.3-23-97.7-23-245.2c0-147.5,7.7-229.9,23-245.2c32.6-32.6,534.5-32.6,567.1,0c32.6,32.6,32.6,457.9,0,490.5C4489.4,1724.2,3987.4,1724.2,3954.9,1691.6z M4391.7,1446.4v-115h-153.3h-153.3v115v115h153.3h153.3V1446.4z"/><path d="M4721.2,1691.6c-15.3-15.3-23-97.7-23-245.2c0-147.5,7.7-229.9,23-245.2c32.6-32.6,534.5-32.6,567.1,0c32.6,32.6,32.6,457.9,0,490.5C5255.8,1724.2,4753.8,1724.2,4721.2,1691.6z M5158.1,1446.4v-115h-153.3h-153.3v115v115h153.3h153.3V1446.4z"/><path d="M5487.6,1691.6c-32.6-32.6-32.6-457.9,0-490.5c32.6-32.6,534.5-32.6,567.1,0c32.6,32.6,32.6,457.9,0,490.5C6022.1,1724.2,5520.2,1724.2,5487.6,1691.6z M5924.4,1446.4v-115h-153.3h-153.3v115v115h153.3h153.3V1446.4z"/><path d="M6254,1691.6c-32.6-32.6-32.6-457.9,0-490.5c32.6-32.6,534.5-32.6,567.1,0c32.6,32.6,32.6,457.9,0,490.5C6788.5,1724.2,6286.6,1724.2,6254,1691.6z M6690.8,1446.4v-115h-153.3h-153.3v115v115h153.3h153.3V1446.4z"/><path d="M7020.4,1691.6c-32.6-32.6-32.6-457.9,0-490.5c32.6-32.6,534.5-32.6,567.1,0c32.6,32.6,32.6,457.9,0,490.5C7554.9,1724.2,7052.9,1724.2,7020.4,1691.6z M7457.2,1446.4v-115h-153.3h-153.3v115v115h153.3h153.3V1446.4z"/><path d="M7786.7,1691.6c-32.6-32.6-32.6-457.9,0-490.5c32.6-32.6,534.5-32.6,567.1,0c32.6,32.6,32.6,457.9,0,490.5C8321.3,1724.2,7819.3,1724.2,7786.7,1691.6z M8223.6,1446.4v-115h-153.3H7917v115v115h153.3h153.3V1446.4z"/><path d="M8553.1,1691.6c-32.6-32.6-32.6-457.9,0-490.5c32.6-32.6,534.5-32.6,567.1,0c32.6,32.6,32.6,457.9,0,490.5C9087.6,1724.2,8585.7,1724.2,8553.1,1691.6z M8989.9,1446.4v-115h-153.3h-153.3v115v115h153.3h153.3V1446.4z"/><path d="M889.4,1001.9c-32.6-32.6-32.6-457.9,0-490.5c32.6-32.6,534.5-32.6,567.1,0c32.6,32.6,32.6,457.9,0,490.5C1423.9,1034.4,921.9,1034.4,889.4,1001.9z M1326.2,756.6v-115h-153.3h-153.3v115v115h153.3h153.3V756.6z"/><path d="M1655.7,1001.9c-32.6-32.6-32.6-457.9,0-490.5c32.6-32.6,534.5-32.6,567.1,0c32.6,32.6,32.6,457.9,0,490.5C2190.3,1034.4,1688.3,1034.4,1655.7,1001.9z M2092.6,756.6v-115h-153.3H1786v115v115h153.3h153.3V756.6z"/><path d="M2422.1,1001.9c-32.6-32.6-32.6-457.9,0-490.5c32.6-32.6,534.5-32.6,567.1,0c32.6,32.6,32.6,457.9,0,490.5C2956.7,1034.4,2454.7,1034.4,2422.1,1001.9z M2858.9,756.6v-115h-153.3h-153.3v115v115h153.3h153.3V756.6z"/><path d="M3188.5,1001.9c-15.3-15.3-23-97.7-23-245.2c0-147.5,7.7-229.9,23-245.2c32.6-32.6,534.5-32.6,567.1,0c32.6,32.6,32.6,457.9,0,490.5C3723,1034.4,3221.1,1034.4,3188.5,1001.9z M3625.3,756.6v-115H3472h-153.3v115v115H3472h153.3V756.6z"/><path d="M3954.9,1001.9c-15.3-15.3-23-97.7-23-245.2c0-147.5,7.7-229.9,23-245.2c32.6-32.6,534.5-32.6,567.1,0c32.6,32.6,32.6,457.9,0,490.5C4489.4,1034.4,3987.4,1034.4,3954.9,1001.9z M4391.7,756.6v-115h-153.3h-153.3v115v115h153.3h153.3V756.6z"/><path d="M4721.2,1001.9c-15.3-15.3-23-97.7-23-245.2c0-147.5,7.7-229.9,23-245.2c32.6-32.6,534.5-32.6,567.1,0c32.6,32.6,32.6,457.9,0,490.5C5255.8,1034.4,4753.8,1034.4,4721.2,1001.9z M5158.1,756.6v-115h-153.3h-153.3v115v115h153.3h153.3V756.6z"/><path d="M5487.6,1001.9c-32.6-32.6-32.6-457.9,0-490.5c32.6-32.6,534.5-32.6,567.1,0c32.6,32.6,32.6,457.9,0,490.5C6022.1,1034.4,5520.2,1034.4,5487.6,1001.9z M5924.4,756.6v-115h-153.3h-153.3v115v115h153.3h153.3V756.6z"/><path d="M6254,1001.9c-32.6-32.6-32.6-457.9,0-490.5c32.6-32.6,534.5-32.6,567.1,0c32.6,32.6,32.6,457.9,0,490.5C6788.5,1034.4,6286.6,1034.4,6254,1001.9z M6690.8,756.6v-115h-153.3h-153.3v115v115h153.3h153.3V756.6z"/><path d="M7020.4,1001.9c-32.6-32.6-32.6-457.9,0-490.5c32.6-32.6,534.5-32.6,567.1,0c32.6,32.6,32.6,457.9,0,490.5C7554.9,1034.4,7052.9,1034.4,7020.4,1001.9z M7457.2,756.6v-115h-153.3h-153.3v115v115h153.3h153.3V756.6z"/><path d="M7786.7,1001.9c-32.6-32.6-32.6-457.9,0-490.5c32.6-32.6,534.5-32.6,567.1,0c32.6,32.6,32.6,457.9,0,490.5C8321.3,1034.4,7819.3,1034.4,7786.7,1001.9z M8223.6,756.6v-115h-153.3H7917v115v115h153.3h153.3V756.6z"/><path d="M8553.1,1001.9c-15.3-15.3-23-120.7-23-344.9V335.1h-360.2c-254.8,0-367.9-7.7-383.2-23c-32.6-32.6-32.6-457.9,0-490.5c32.6-32.6,1300.9-32.6,1333.5,0c32.6,32.6,32.6,1147.6,0,1180.2C9087.6,1034.4,8585.7,1034.4,8553.1,1001.9z M8989.9,411.8V-48.1h-536.5H7917v115v115h360.2c254.8,0,367.9,7.7,383.2,23c15.3,15.3,23,120.7,23,344.9v321.9h153.3h153.3V411.8z"/><path d="M889.4,312.1c-32.6-32.6-32.6-457.9,0-490.5c32.6-32.6,1300.9-32.6,1333.5,0c32.6,32.6,32.6,457.9,0,490.5C2190.3,344.7,921.9,344.7,889.4,312.1z M2092.6,66.9v-115h-536.5h-536.5v115v115h536.5h536.5V66.9z"/><path d="M2422.1,312.1c-32.6-32.6-32.6-457.9,0-490.5c32.6-32.6,534.5-32.6,567.1,0c32.6,32.6,32.6,457.9,0,490.5C2956.7,344.7,2454.7,344.7,2422.1,312.1z M2858.9,66.9v-115h-153.3h-153.3v115v115h153.3h153.3V66.9z"/><path d="M3188.5,312.1c-15.3-15.3-23-97.7-23-245.2c0-147.5,7.7-229.9,23-245.2c32.6-32.6,534.5-32.6,567.1,0c32.6,32.6,32.6,457.9,0,490.5C3723,344.7,3221.1,344.7,3188.5,312.1z M3625.3,66.9v-115H3472h-153.3v115v115H3472h153.3V66.9z"/><path d="M3954.9,312.1c-15.3-15.3-23-97.7-23-245.2c0-147.5,7.7-229.9,23-245.2c32.6-32.6,534.5-32.6,567.1,0c32.6,32.6,32.6,457.9,0,490.5C4489.4,344.7,3987.4,344.7,3954.9,312.1z M4391.7,66.9v-115h-153.3h-153.3v115v115h153.3h153.3V66.9z"/><path d="M4721.2,312.1c-15.3-15.3-23-97.7-23-245.2c0-147.5,7.7-229.9,23-245.2c32.6-32.6,534.5-32.6,567.1,0c32.6,32.6,32.6,457.9,0,490.5C5255.8,344.7,4753.8,344.7,4721.2,312.1z M5158.1,66.9v-115h-153.3h-153.3v115v115h153.3h153.3V66.9z"/><path d="M5487.6,312.1c-32.6-32.6-32.6-457.9,0-490.5c32.6-32.6,534.5-32.6,567.1,0c32.6,32.6,32.6,457.9,0,490.5C6022.1,344.7,5520.2,344.7,5487.6,312.1z M5924.4,66.9v-115h-153.3h-153.3v115v115h153.3h153.3V66.9z"/><path d="M6254,312.1c-32.6-32.6-32.6-457.9,0-490.5c32.6-32.6,534.5-32.6,567.1,0c32.6,32.6,32.6,457.9,0,490.5C6788.5,344.7,6286.6,344.7,6254,312.1z M6690.8,66.9v-115h-153.3h-153.3v115v115h153.3h153.3V66.9z"/><path d="M7020.4,312.1c-32.6-32.6-32.6-457.9,0-490.5c32.6-32.6,534.5-32.6,567.1,0c32.6,32.6,32.6,457.9,0,490.5C7554.9,344.7,7052.9,344.7,7020.4,312.1z M7457.2,66.9v-115h-153.3h-153.3v115v115h153.3h153.3V66.9z"/><path d="M889.4-377.6c-32.6-32.6-32.6-457.9,0-490.5c32.6-32.6,1300.9-32.6,1333.5,0c32.6,32.6,32.6,457.9,0,490.5C2190.3-345,921.9-345,889.4-377.6z M2092.6-622.8v-115h-536.5h-536.5v115v115h536.5h536.5V-622.8z"/><path d="M2422.1-377.6c-32.6-32.6-32.6-457.9,0-490.5c32.6-32.6,534.5-32.6,567.1,0c32.6,32.6,32.6,457.9,0,490.5c-15.3,15.3-107.3,23-283.6,23S2437.4-362.3,2422.1-377.6z M2858.9-622.8v-115h-153.3h-153.3v115v115h153.3h153.3V-622.8z"/><path d="M3188.5-377.6c-15.3-15.3-23-97.7-23-245.2s7.7-229.9,23-245.2c32.6-32.6,534.5-32.6,567.1,0c32.6,32.6,32.6,457.9,0,490.5c-15.3,15.3-107.3,23-283.6,23S3203.8-362.3,3188.5-377.6z M3625.3-622.8v-115H3472h-153.3v115v115H3472h153.3V-622.8z"/><path d="M3954.9-377.6c-15.3-15.3-23-97.7-23-245.2s7.7-229.9,23-245.2c32.6-32.6,534.5-32.6,567.1,0c32.6,32.6,32.6,457.9,0,490.5c-15.3,15.3-107.3,23-283.6,23S3970.2-362.3,3954.9-377.6z M4391.7-622.8v-115h-153.3h-153.3v115v115h153.3h153.3V-622.8z"/><path d="M4721.2-377.6c-15.3-15.3-23-97.7-23-245.2s7.7-229.9,23-245.2c32.6-32.6,534.5-32.6,567.1,0c32.6,32.6,32.6,457.9,0,490.5c-15.3,15.3-107.3,23-283.5,23C4828.5-354.6,4736.6-362.3,4721.2-377.6z M5158.1-622.8v-115h-153.3h-153.3v115v115h153.3h153.3V-622.8z"/><path d="M5487.6-377.6c-32.6-32.6-32.6-457.9,0-490.5c32.6-32.6,534.5-32.6,567.1,0c32.6,32.6,32.6,457.9,0,490.5c-15.3,15.3-107.3,23-283.6,23S5502.9-362.3,5487.6-377.6z M5924.4-622.8v-115h-153.3h-153.3v115v115h153.3h153.3V-622.8z"/><path d="M6254-377.6c-32.6-32.6-32.6-457.9,0-490.5c32.6-32.6,534.5-32.6,567.1,0c32.6,32.6,32.6,457.9,0,490.5c-15.3,15.3-107.3,23-283.6,23S6269.3-362.3,6254-377.6z M6690.8-622.8v-115h-153.3h-153.3v115v115h153.3h153.3V-622.8z"/><path d="M7020.4-377.6c-32.6-32.6-32.6-457.9,0-490.5c32.6-32.6,534.5-32.6,567.1,0c32.6,32.6,32.6,457.9,0,490.5c-15.3,15.3-107.3,23-283.6,23S7035.7-362.3,7020.4-377.6z M7457.2-622.8v-115h-153.3h-153.3v115v115h153.3h153.3V-622.8z"/><path d="M7786.7-377.6c-32.6-32.6-32.6-457.9,0-490.5c32.6-32.6,1300.9-32.6,1333.5,0c15.3,15.3,23,97.7,23,245.2s-7.7,229.9-23,245.2C9087.6-345,7819.3-345,7786.7-377.6z M8989.9-622.8v-115h-536.5H7917v115v115h536.5h536.5V-622.8z"/><path d="M889.4-1067.3c-32.6-32.6-32.6-457.9,0-490.5c32.6-32.6,534.5-32.6,567.1,0c32.6,32.6,32.6,457.9,0,490.5c-15.3,15.3-107.3,23-283.6,23S904.7-1052,889.4-1067.3z M1326.2-1312.6v-115h-153.3h-153.3v115v115h153.3h153.3V-1312.6z"/><path d="M1655.7-1067.3c-32.6-32.6-32.6-457.9,0-490.5c32.6-32.6,534.5-32.6,567.1,0c32.6,32.6,32.6,457.9,0,490.5c-15.3,15.3-107.3,23-283.6,23S1671.1-1052,1655.7-1067.3z M2092.6-1312.6v-115h-153.3H1786v115v115h153.3h153.3V-1312.6z"/><path d="M2422.1-1067.3c-32.6-32.6-32.6-457.9,0-490.5c32.6-32.6,534.5-32.6,567.1,0c32.6,32.6,32.6,457.9,0,490.5c-15.3,15.3-107.3,23-283.6,23S2437.4-1052,2422.1-1067.3z M2858.9-1312.6v-115h-153.3h-153.3v115v115h153.3h153.3V-1312.6z"/><path d="M3188.5-1067.3c-15.3-15.3-23-97.7-23-245.2c0-147.5,7.7-229.9,23-245.2c32.6-32.6,3600-32.6,3632.6,0c32.6,32.6,32.6,457.9,0,490.5C6788.5-1034.8,3221.1-1034.8,3188.5-1067.3z M6690.8-1312.6v-115h-1686h-1686v115v115h1686h1686V-1312.6z"/><path d="M7020.4-1067.3c-32.6-32.6-32.6-457.9,0-490.5c32.6-32.6,534.5-32.6,567.1,0c32.6,32.6,32.6,457.9,0,490.5c-15.3,15.3-107.3,23-283.6,23S7035.7-1052,7020.4-1067.3z M7457.2-1312.6v-115h-153.3h-153.3v115v115h153.3h153.3V-1312.6z"/><path d="M7786.7-1067.3c-32.6-32.6-32.6-457.9,0-490.5c32.6-32.6,534.5-32.6,567.1,0c32.6,32.6,32.6,457.9,0,490.5c-15.3,15.3-107.3,23-283.6,23S7802-1052,7786.7-1067.3z M8223.6-1312.6v-115h-153.3H7917v115v115h153.3h153.3V-1312.6z"/><path d="M8553.1-1067.3c-32.6-32.6-32.6-457.9,0-490.5c32.6-32.6,534.5-32.6,567.1,0c32.6,32.6,32.6,457.9,0,490.5c-15.3,15.3-107.3,23-283.6,23S8568.4-1052,8553.1-1067.3z M8989.9-1312.6v-115h-153.3h-153.3v115v115h153.3h153.3V-1312.6z"/></g></g>
</svg>